<?xml version="1.0" encoding="UTF-8"?>
<!DOCTYPE svg PUBLIC "-//W3C//DTD SVG 1.1//EN" "http://www.w3.org/Graphics/SVG/1.1/DTD/svg11.dtd">
<svg version="1.1" xmlns="http://www.w3.org/2000/svg" xmlns:xlink="http://www.w3.org/1999/xlink" x="0" y="0" width="1185.907" height="882.045" viewBox="0, 0, 1185.907, 882.045">
  <g id="Layer_1">
    <path d="M309.164,875.677 L306.225,869.31 L305.905,842.194 C305.614,817.582 305.739,815.018 307.258,814.435 C308.178,814.082 318.447,813.504 330.078,813.15 C343.59,812.739 351.508,812.11 352.009,811.408 C353.043,809.959 351.961,773.423 350.596,763.713 L349.528,756.116 L327.877,755.386 C315.968,754.985 295.65,754.261 282.725,753.776 C241.214,752.221 189.492,750.753 139.225,749.702 C51.09,747.859 33.243,747.321 31.92,746.467 C30.877,745.793 30.737,740.486 31.221,719.967 C31.554,705.855 32.015,683.735 32.244,670.81 C33.09,623.157 34.743,550.413 35.687,519.31 C38.524,425.766 38.751,408.57 38.117,335.31 C37.75,292.96 37.789,234.231 38.204,204.802 L38.957,151.295 L41.591,148.157 L44.225,145.019 L76.725,144.678 C94.6,144.491 155.125,144.457 211.225,144.603 C312.275,144.865 328.611,144.527 373.225,141.253 C385.325,140.364 399.5,139.339 404.725,138.974 L414.225,138.31 L413.9,127.31 C413.497,113.683 415.054,99.757 417.433,95.715 C418.418,94.04 422.15,90.745 425.725,88.393 C432.249,84.1 468.341,65.81 470.288,65.81 C470.86,65.81 474.004,64.079 477.276,61.964 C480.548,59.848 485.475,56.875 488.225,55.357 C490.975,53.838 495.7,51.131 498.725,49.339 C506.833,44.538 528.364,32.81 529.07,32.81 C529.64,32.81 547.815,22.081 552.225,19.141 C553.325,18.408 558.05,15.275 562.725,12.179 C567.4,9.083 573.048,5.076 575.277,3.275 L579.329,-0 L584.777,1.402 C594.986,4.03 601.844,6.994 631.167,21.455 C640.486,26.05 648.717,29.81 649.46,29.81 C650.202,29.81 651.353,30.268 652.017,30.827 C654.009,32.505 676.917,43.405 681.225,44.724 C683.425,45.398 686.125,46.348 687.225,46.835 C693.335,49.54 702.01,52.846 707.725,54.648 C715.962,57.244 727.213,61.408 730.721,63.158 C732.207,63.899 736.44,65.322 740.126,66.32 C744.6,67.531 747.227,68.829 748.027,70.222 C748.899,71.741 749.225,82.426 749.225,109.471 L749.225,146.632 L762.725,147.369 C771.006,147.821 786.082,147.595 801.725,146.783 C819.642,145.854 847.745,145.572 896.225,145.837 C1022.425,146.526 1058.901,146.272 1136.849,144.162 C1155.019,143.671 1161.834,143.802 1162.849,144.664 C1163.606,145.306 1165.522,146.806 1167.108,147.998 L1169.991,150.164 L1169.347,179.237 C1167.541,260.898 1167.406,282.72 1168.697,284.276 C1169.633,285.404 1169.657,285.81 1168.788,285.81 C1168.138,285.81 1167.886,286.263 1168.229,286.816 C1169.115,288.25 1169.024,300.095 1167.793,343.31 C1167.198,364.21 1166.254,403.585 1165.694,430.81 C1164.434,492.12 1164.106,504.581 1162.615,547.81 C1161.961,566.785 1161.315,621.472 1161.18,669.338 L1160.933,756.365 L1156.579,760.728 L1152.225,765.091 L1118.225,764.488 C1076.689,763.753 1023.433,762.089 999.225,760.772 C975.706,759.492 918.58,757.909 877.725,757.405 C859.85,757.185 840.725,756.518 835.225,755.923 C821.227,754.408 794.718,753.401 790.364,754.218 L786.725,754.9 L786.734,777.605 C786.739,790.093 787.013,802.56 787.343,805.31 L787.943,810.31 L808.754,810.021 L829.565,809.733 L832.061,813.021 C837.303,819.927 838.87,833.624 836.672,853.334 C835.704,862.016 835.785,863.156 837.672,867.422 C839.77,872.166 840.271,876.44 838.96,878.418 C837.013,881.354 767.299,882.326 722.225,880.044 C702.691,879.056 690.776,879.03 667.725,879.925 C648.94,880.655 624.787,880.805 601.225,880.337 C501.715,878.364 376.319,878.856 324.665,881.421 L312.104,882.045 L309.165,875.677 z" fill="#000000" id="path89797"/>
    <path d="M580.225,868.314 C688.025,868.179 787.475,867.672 801.225,867.189 L826.225,866.31 L827.003,844.421 C827.43,832.382 827.505,822.257 827.169,821.921 C826.308,821.06 690.703,821.696 633.725,822.828 C572.202,824.05 493.265,824.037 454.725,822.798 C404.954,821.198 367.038,821.097 365.575,822.56 C364.644,823.491 358.132,823.81 340.025,823.81 L315.725,823.81 L315.725,829.164 L315.725,834.519 L325.975,835.176 C350.547,836.751 397.99,837.062 427.282,835.84 C444.075,835.139 458.102,834.854 458.453,835.205 C458.804,835.556 458.538,836.398 457.862,837.076 C456.441,838.502 445.508,839.131 393.225,840.794 C373.425,841.425 348.225,842.248 337.225,842.625 L317.225,843.31 L316.926,848.477 C316.58,854.444 316.569,854.437 328.144,856.235 C335.646,857.4 375.986,856.621 401.725,854.813 C417.497,853.706 451.914,853.615 460.725,854.659 C465.326,855.203 466.275,855.658 466.529,857.441 L466.833,859.572 L423.029,860.188 C398.937,860.527 371.35,861.249 361.725,861.794 C352.1,862.338 338.375,863.041 331.225,863.355 C324.075,863.67 317.843,864.305 317.376,864.768 C316.908,865.23 316.804,866.483 317.143,867.553 C317.742,869.44 318.74,869.484 350.993,869.029 C369.27,868.772 472.425,868.45 580.225,868.314 z" fill="#999999" id="path89795"/>
    <path d="M587.725,812.851 C606.15,812.257 654.525,811.125 695.225,810.334 C735.925,809.544 770.855,808.61 772.847,808.259 C776.35,807.642 776.489,807.452 777.088,802.465 C777.429,799.63 777.711,787.972 777.716,776.56 C777.726,752.967 778.088,753.772 769.446,758.147 C765.655,760.067 764.596,760.252 763.527,759.183 C762.569,758.226 756.803,757.781 741.725,757.502 C707.671,756.87 662.782,754.865 653.225,753.549 C641.455,751.928 616.568,751.982 572.225,753.724 C527.557,755.478 518.417,755.529 450.652,754.401 C407.681,753.686 392.087,753.777 377.295,754.831 L358.511,756.17 L358.93,761.969 C359.161,765.158 359.696,768.115 360.12,768.539 C360.983,769.403 419.252,769.577 450.725,768.81 C462,768.535 475.275,768.725 480.225,769.233 L489.225,770.157 L484.225,771.002 C481.475,771.467 472.7,772.025 464.725,772.243 C456.75,772.46 441,773.102 429.725,773.67 C418.45,774.238 398.312,775.023 384.975,775.414 L360.725,776.125 L360.725,779.025 C360.725,780.619 361.244,783.986 361.878,786.505 L363.032,791.086 L378.128,790.486 C386.432,790.155 401.775,789.413 412.225,788.836 C422.675,788.259 441.575,787.358 454.225,786.834 C466.875,786.31 484.087,785.57 492.475,785.19 C505.983,784.576 507.725,784.677 507.725,786.073 C507.725,788.395 499.857,790.519 488.225,791.337 C482.725,791.724 462.25,792.414 442.725,792.87 C404.181,793.771 373.695,795.764 366.975,797.824 L362.725,799.126 L362.725,804.909 C362.725,808.447 363.209,810.991 363.971,811.462 C368.976,814.555 508.013,815.418 587.725,812.851 z" fill="#999999" id="path89793"/>
    <path d="M1145.527,750.298 C1148.443,750.156 1150.986,749.875 1151.18,749.675 C1151.373,749.474 1151.687,746.167 1151.878,742.327 L1152.225,735.344 L1148.225,734.608 C1146.025,734.203 1137.7,733.19 1129.725,732.357 C1121.75,731.524 1111.625,730.393 1107.225,729.842 C1102.825,729.292 1095.694,728.539 1091.377,728.17 C1075.105,726.777 1087.205,725.621 1119.666,725.466 L1152.45,725.31 L1152.072,712.81 L1151.694,700.31 L1148.459,699.52 C1146.68,699.085 1137.8,698.258 1128.725,697.682 C1119.65,697.106 1110.875,696.465 1109.225,696.257 C1107.575,696.049 1103.3,695.594 1099.725,695.245 C1093.606,694.648 1090.663,693.538 1091.905,692.296 C1092.206,691.995 1103.426,691.323 1116.839,690.802 C1130.251,690.282 1143.552,689.573 1146.397,689.227 L1151.569,688.599 L1151.897,681.575 C1152.157,676.002 1151.915,674.455 1150.725,674.089 C1149.9,673.836 1148.325,673.254 1147.225,672.797 C1144.561,671.689 1139.699,670.441 1137.225,670.23 C1136.125,670.136 1130.275,669.362 1124.225,668.511 C1118.175,667.659 1108.388,666.393 1102.476,665.696 C1091.626,664.417 1088.639,663.562 1090.059,662.142 C1090.487,661.715 1101.144,661.188 1113.742,660.97 C1132.924,660.64 1137.783,660.854 1143.63,662.286 C1147.47,663.227 1151.087,663.704 1151.668,663.345 C1152.274,662.971 1152.725,659.133 1152.725,654.362 L1152.725,646.032 L1148.975,645.248 C1146.912,644.817 1145,644.408 1144.725,644.338 C1144.45,644.269 1141.975,643.883 1139.225,643.48 C1136.475,643.078 1132.2,642.346 1129.725,641.855 C1127.25,641.363 1122.3,640.456 1118.725,639.839 C1102.117,636.974 1092.183,634.46 1090.225,632.628 C1089.18,631.65 1101.859,632.152 1120.225,633.815 C1125.725,634.313 1135.122,634.85 1141.107,635.008 L1151.99,635.295 L1152.433,622.685 L1152.877,610.075 L1145.051,608.844 C1140.747,608.167 1136.1,607.432 1134.725,607.211 C1133.35,606.99 1129.412,606.519 1125.975,606.165 C1122.537,605.81 1119.725,605.248 1119.726,604.915 C1119.727,604.582 1117.364,604.345 1114.476,604.389 C1111.588,604.432 1104.505,604.207 1098.735,603.889 C1089.503,603.379 1088.202,603.083 1087.885,601.423 C1087.557,599.701 1087.992,599.594 1092.875,600.196 C1095.818,600.559 1107.225,601.098 1118.225,601.393 C1141.804,602.026 1151.278,600.754 1151.153,596.972 C1151.115,595.783 1151.002,591.949 1150.903,588.452 L1150.725,582.094 L1142.475,580.35 C1128.875,577.474 1123.358,576.663 1120.743,577.154 C1119.378,577.411 1117.128,577.044 1115.743,576.339 C1114.34,575.624 1108.224,574.857 1101.934,574.606 C1093.315,574.263 1090.261,573.775 1089.028,572.541 C1087.541,571.054 1087.616,570.875 1089.979,570.282 C1091.39,569.928 1100.347,569.913 1109.885,570.248 C1139.197,571.279 1146.126,571.338 1148.833,570.576 C1151.329,569.875 1151.464,569.468 1151.983,561.149 C1152.282,556.367 1152.315,551.906 1152.058,551.236 C1151.778,550.507 1147.503,549.54 1141.408,548.828 C1118.142,546.107 1107.9,544.617 1102.225,543.125 C1098.925,542.258 1095.662,541.532 1094.975,541.512 C1094.287,541.493 1093.725,541.099 1093.725,540.637 C1093.725,540.176 1097.662,540.138 1102.475,540.554 C1116.423,541.759 1137.572,541.437 1145.475,539.899 L1152.725,538.489 L1152.725,529.221 L1152.725,519.954 L1147.475,519.409 C1144.587,519.109 1137.275,518.588 1131.225,518.252 C1125.175,517.915 1116.85,517.189 1112.725,516.637 C1108.6,516.086 1101.4,515.336 1096.725,514.972 C1090.225,514.466 1088.225,513.965 1088.225,512.844 C1088.225,510.193 1108.33,508.574 1129.725,509.501 C1139.9,509.942 1149.313,510.305 1150.642,510.306 C1153.009,510.309 1153.062,510.125 1153.142,501.558 L1153.224,492.806 L1149.851,492.174 C1147.996,491.826 1142.821,491.811 1138.351,492.142 C1133.881,492.473 1097.15,492.9 1056.724,493.092 C1016.299,493.285 981.65,493.718 979.725,494.055 C967.305,496.233 950.181,496.969 894.237,497.727 C859.594,498.196 830.344,498.243 829.237,497.832 C827.148,497.055 791.885,498.198 781.042,499.394 L774.86,500.075 L774.352,509.193 C774.073,514.207 773.408,559.71 772.875,610.31 C772.341,660.91 771.611,712.21 771.253,724.31 L770.603,746.31 L841.914,746.486 C881.135,746.584 933.7,747.152 958.725,747.75 C983.75,748.348 1025.318,749.261 1051.099,749.781 C1076.88,750.3 1098.255,751.024 1098.599,751.39 C1099.117,751.942 1123.382,751.377 1145.526,750.298 z" fill="#FFCB65" id="path89791"/>
    <path d="M1017.225,700.285 C992.4,698.743 988.174,698.234 978.458,695.615 C969.686,693.251 970.498,694.561 968.662,679.81 C967.561,670.96 967.91,617.478 969.142,606.31 C969.384,604.11 970.092,593.31 970.713,582.31 C971.335,571.31 972.155,557.603 972.534,551.851 L973.225,541.392 L977.725,540.011 C981.063,538.987 991.905,538.498 1019.725,538.118 L1057.225,537.607 L1060.303,540.958 C1064.254,545.26 1065.032,548.222 1062.753,550.284 C1061.693,551.244 1060.722,554.135 1060.299,557.591 C1059.915,560.736 1059.346,565.447 1059.035,568.06 C1058.725,570.672 1058.19,572.81 1057.848,572.81 C1057.505,572.81 1057.211,574.272 1057.194,576.06 C1057.161,579.432 1055.545,602.632 1053.581,627.91 C1052.911,636.532 1052.643,654.082 1052.926,670.777 L1053.406,699.045 L1050.098,700.427 C1046.335,701.999 1044.693,701.992 1017.225,700.285 z" fill="#000000" id="path89789"/>
    <path d="M1042.07,673.56 C1043.793,635.871 1045.276,610.11 1047.264,583.31 C1048.725,563.62 1049.344,551.241 1048.909,550.423 C1048.336,549.344 991.696,550.372 986.753,551.552 L983.281,552.38 L982.113,562.921 C980.048,581.552 979.687,680.62 981.672,683.758 C982.689,685.366 997.71,686.348 1025.844,686.645 L1041.464,686.81 z" fill="#CCCCFE" id="path89787"/>
    <path d="M992.471,673.283 C988.146,668.958 988.083,661.027 992.198,638.528 C993.081,633.698 993.572,629.37 993.288,628.911 C993.004,628.452 993.604,627.324 994.621,626.403 C996.366,624.825 996.507,624.86 997.114,627.02 C997.468,628.279 998.043,637.681 998.393,647.912 L999.028,666.514 L1015.127,667.167 C1032.864,667.887 1036.725,668.441 1036.725,670.266 C1036.725,672.933 1020.519,675.81 1005.496,675.81 C995.601,675.81 994.852,675.664 992.471,673.283 z" fill="#000000" id="path89785"/>
    <path d="M833.725,694.446 L825.225,693.31 L825.225,652.81 C825.225,630.535 825.885,599.485 826.692,583.81 C827.499,568.135 828.185,551.976 828.216,547.902 C828.266,541.329 828.495,540.454 830.248,540.148 C834.834,539.347 865.159,537.874 890.375,537.228 L917.498,536.534 L919.207,539.141 C921.166,542.131 921.173,543.46 919.617,610.31 C918.516,657.56 917.397,677.255 915.175,688.424 C914.662,691.006 911.74,691.345 868.725,693.817 C858.55,694.402 848.425,695.038 846.225,695.232 C844.025,695.425 838.4,695.072 833.725,694.446 z" fill="#000000" id="path89783"/>
    <path d="M883.725,682.81 C898.194,681.517 904.708,680.322 904.74,678.951 C904.748,678.598 904.979,672.91 905.253,666.31 C905.527,659.71 905.934,649.135 906.157,642.81 C906.379,636.485 906.826,625.235 907.149,617.81 C907.472,610.385 907.949,593.285 908.208,579.81 C908.468,566.335 908.985,553.557 909.357,551.414 L910.034,547.519 L902.629,548.151 C898.557,548.499 882.335,549.083 866.581,549.449 L837.937,550.114 L837.274,564.712 C836.44,583.069 834.867,628.452 834.057,657.516 C833.495,677.686 833.6,679.97 835.203,682.416 L836.967,685.109 L855.096,684.428 C865.067,684.054 877.95,683.325 883.725,682.81 z" fill="#CCCCFE" id="path89781"/>
    <path d="M845.431,668.024 C841.118,663.523 839.49,655.435 840.053,641.31 C840.561,628.577 842.435,612.792 843.583,611.586 C843.962,611.188 845.593,611.662 847.207,612.638 C849.684,614.137 850.322,615.409 851.297,620.8 C852.044,624.933 852.163,629.679 851.632,634.248 C851.182,638.132 850.793,645.247 850.769,650.06 L850.725,658.81 L866.676,658.81 C884.261,658.81 895.725,660.754 895.725,663.737 C895.725,664.586 891.877,665.337 880.225,666.763 C876.375,667.234 869.85,668.13 865.725,668.754 C849.565,671.198 848.432,671.158 845.431,668.024 z" fill="#000000" id="path89779"/>
    <path d="M446.943,742.071 C447.183,740.014 447.036,720.552 446.616,698.821 C445.299,630.678 445.521,574.285 447.137,566.561 C448.711,559.039 452.658,547.817 456.315,540.467 C457.641,537.804 458.725,535.137 458.725,534.54 C458.725,533.141 467.359,516.132 469.834,512.657 C470.874,511.196 471.725,509.728 471.725,509.395 C471.725,507.893 484.552,493.343 494.396,483.679 C505.347,472.929 523.721,459.645 538.548,451.758 C544.825,448.419 557.874,443.772 565.725,442.08 C570.224,441.111 588.881,441.119 594.725,442.094 C611.471,444.886 635.859,457.109 657.578,473.596 C660.684,475.953 664.8,478.934 666.725,480.221 C670.12,482.489 679.522,492.234 684.835,498.991 C688.07,503.105 689.629,506.157 693.661,516.274 C695.408,520.655 697.255,524.744 697.768,525.361 C698.28,525.978 699.142,537.244 699.684,550.396 C700.226,563.549 700.939,579.035 701.269,584.81 C702.424,605.062 702.662,611.638 703.713,652.31 C704.296,674.86 705.17,698.935 705.654,705.81 C706.139,712.685 706.578,724.047 706.63,731.06 L706.725,743.81 L714.975,743.928 C719.512,743.992 724.575,744.175 726.225,744.333 C727.875,744.492 735.754,744.951 743.734,745.354 L758.244,746.085 L761.331,743.488 C764.38,740.922 764.427,740.737 765.261,728.1 C765.725,721.065 766.06,709.91 766.005,703.31 C763.962,455.894 763.675,434.426 762.396,433.147 C762.042,432.793 754.434,433.003 745.489,433.613 C729.043,434.734 698.757,433.983 675.725,431.881 C669.95,431.354 664.55,430.874 663.725,430.815 C653.804,430.103 564.507,429.912 539.725,430.551 C521.85,431.011 504.975,431.025 502.225,430.582 C499.475,430.138 477.747,429.67 453.941,429.542 C417.668,429.347 410.516,429.537 409.786,430.715 C409.307,431.487 408.69,457.587 408.414,488.715 C408.138,519.842 407.434,555.66 406.848,568.31 C406.263,580.96 405.546,598.96 405.255,608.31 C404.964,617.66 404.273,637.685 403.719,652.81 C401.981,700.3 401.364,742.469 402.398,743.108 C402.925,743.433 411.652,744.005 421.791,744.378 C431.93,744.75 440.412,745.225 440.642,745.433 C440.871,745.64 442.284,745.81 443.782,745.81 C446.184,745.81 446.558,745.367 446.943,742.071 z" fill="#CC9866" id="path89777"/>
    <path d="M501.725,744.011 C505.85,743.753 551.525,743.353 603.225,743.122 C654.925,742.89 697.561,742.367 697.971,741.959 C698.381,741.551 697.819,739.456 696.721,737.302 C695.088,734.098 694.725,731.405 694.725,722.479 L694.725,711.571 L684.475,712.229 C630.781,715.679 602.561,715.668 583.975,712.192 C575.411,710.591 592.802,706.911 614.521,705.73 C624.258,705.2 643.25,704.324 656.725,703.784 C670.2,703.244 684.037,702.539 687.475,702.217 L693.725,701.632 L693.725,692.829 C693.725,684.238 693.664,684.011 691.187,683.389 C689.791,683.039 676.403,683.272 661.437,683.908 C624.927,685.459 598.846,684.724 592.725,681.973 L588.225,679.951 L596.427,679.88 C600.938,679.841 612.188,679.122 621.427,678.28 C630.666,677.439 644.075,676.322 651.225,675.797 C658.375,675.273 666.025,674.606 668.225,674.316 C670.425,674.025 676.837,673.276 682.475,672.651 L692.725,671.514 L692.725,658.603 C692.725,649.116 692.419,645.88 691.573,646.403 C687.275,649.06 603.906,651.391 601.439,648.924 C600.9,648.385 600.712,647.286 601.021,646.481 C601.681,644.761 605.74,644.157 625.725,642.807 C655.113,640.822 678.792,638.572 683.924,637.277 C686.06,636.738 687.123,637.136 689.023,639.187 C690.344,640.611 691.717,641.484 692.075,641.127 C692.908,640.293 692.9,626.505 692.064,621.44 L691.424,617.57 L668.325,617.899 C647.143,618.2 628.358,617.543 619.845,616.202 C617.401,615.818 616.767,615.368 617.557,614.578 C618.237,613.898 627.806,613.174 642.937,612.658 C656.295,612.203 669.7,611.424 672.725,610.928 C680.145,609.711 689.814,606.981 691.418,605.65 C692.347,604.878 692.725,601.43 692.725,593.722 C692.725,584.085 692.513,582.767 690.821,581.861 C688.866,580.815 675.404,581 655.154,582.352 C642.812,583.175 634.725,582.396 634.725,580.384 C634.725,578.866 641.074,577.81 650.198,577.81 C656.291,577.81 658.263,577.537 676.225,574.211 C681.175,573.295 686.887,572.335 688.918,572.078 L692.61,571.611 L692.918,559.765 L693.225,547.92 L674.177,547.615 C657.355,547.345 654.785,547.084 652.187,545.379 L649.244,543.448 L652.234,542.631 C653.879,542.181 660.85,541.363 667.725,540.812 C674.6,540.261 682.7,539.472 685.725,539.06 L691.225,538.31 L691.055,534.553 C690.961,532.486 690.144,528.855 689.238,526.482 L687.591,522.169 L675.519,521.033 C665.364,520.078 663.073,519.546 661.086,517.679 C656.773,513.627 657.873,512.81 667.643,512.81 C678.474,512.81 679.725,512.398 679.725,508.83 C679.725,506.692 678.073,504.503 672.446,499.187 C668.443,495.404 663.155,490.961 660.696,489.312 C658.237,487.664 656,486.044 655.725,485.712 C655.45,485.38 653.235,483.862 650.803,482.338 C648.371,480.815 645.896,479.159 645.303,478.659 C640.892,474.94 633.127,469.865 629.533,468.352 C627.164,467.354 623.875,465.961 622.225,465.256 C596.944,454.45 587.319,451.809 573.245,451.813 C563.996,451.816 561.699,452.138 558.951,453.813 C557.15,454.911 555.068,455.81 554.323,455.81 C553.579,455.81 552.47,456.412 551.859,457.148 C551.248,457.884 548.872,459.048 546.577,459.736 C541.854,461.151 538.02,463.609 532.225,468.938 C530.025,470.961 526.65,473.449 524.725,474.466 C515.981,479.089 506.33,486.607 498.132,495.181 C486.786,507.048 480.873,515.431 473.704,529.81 C468.181,540.888 457.966,565.183 457.096,569.31 C455.651,576.168 454.639,588.559 453.584,612.31 C452.076,646.258 453.68,703.207 457.174,739.81 C457.305,741.185 457.483,743.167 457.569,744.216 C457.719,746.048 458.433,746.09 475.975,745.3 C486.012,744.849 497.6,744.268 501.725,744.011 z" fill="#CCCCCC" id="path89775"/>
    <path d="M500.021,727.149 L495.918,724.488 L495.286,714.899 C494.939,709.625 494.444,699.01 494.187,691.31 C493.93,683.61 493.268,671.685 492.717,664.81 C490.574,638.088 490.416,614.237 492.254,594.81 C493.216,584.635 494.087,575.185 494.189,573.81 C494.582,568.508 496.043,560.939 498.435,551.81 C499.805,546.585 501.335,540.61 501.836,538.533 C502.337,536.456 505.023,530.381 507.804,525.033 C516.32,508.659 515.076,510.33 532.725,491.545 C544.021,479.522 555.989,471.81 563.351,471.81 C566.572,471.81 567.725,472.205 567.725,473.31 C567.725,474.149 566.834,474.81 565.703,474.81 C564.59,474.81 561.727,476.61 559.341,478.81 C556.954,481.01 554.681,482.81 554.29,482.81 C553.899,482.81 550.486,485.172 546.705,488.06 C542.925,490.947 538.699,494.106 537.314,495.079 C535.215,496.555 525.725,509.859 525.725,511.326 C525.725,511.575 524.421,513.924 522.827,516.545 C521.234,519.165 519.149,524.01 518.195,527.31 C517.242,530.61 515.413,536.685 514.132,540.81 C512.084,547.404 508.938,563.609 508.889,567.81 C508.879,568.635 508.392,574.035 507.806,579.81 C503.547,621.766 503.367,639.522 506.76,682.81 C507.298,689.685 507.739,699.135 507.738,703.81 C507.737,708.485 508.176,714.995 508.714,718.277 C509.353,722.179 509.351,724.584 508.708,725.227 C508.167,725.767 507.725,727.02 507.725,728.01 C507.725,730.586 504.822,730.261 500.021,727.149 z" fill="#000000" id="path89773"/>
    <path d="M382.377,743.236 L395.529,742.615 L396.017,738.963 C396.285,736.953 396.565,701.826 396.639,660.901 C396.771,588.001 398.023,508.851 399.318,491.639 L399.97,482.969 L395.598,482.323 C393.193,481.967 384.925,481.891 377.225,482.154 C369.525,482.417 338.25,483.073 307.725,483.612 C276.772,484.159 247.985,485.129 242.639,485.804 C235.378,486.722 230.12,486.748 220.966,485.913 C204.205,484.383 98.527,484.408 96.993,485.942 C96.157,486.778 93.426,486.791 86.543,485.992 C81.418,485.397 70.25,484.775 61.725,484.61 L46.225,484.31 L45.934,487.81 C45.774,489.735 46.018,493.11 46.476,495.31 C47.279,499.167 47.486,499.339 52.267,500.123 C59.327,501.281 101.243,502.99 127.725,503.198 C150.777,503.38 154.725,503.85 154.725,506.418 C154.725,507.482 153.684,507.846 150.975,507.73 C148.912,507.642 141.15,508.137 133.725,508.83 C124.852,509.659 114.741,509.85 104.225,509.39 C82.742,508.448 60.655,508.669 52.754,509.906 C49.195,510.463 46.148,511.053 45.984,511.217 C45.82,511.381 45.447,514.506 45.155,518.162 L44.625,524.81 L71.925,524.895 C106.207,525.002 125.719,525.609 125.743,526.567 C125.754,526.976 122.716,527.582 118.994,527.915 C115.271,528.248 107.275,529.079 101.225,529.761 C95.175,530.443 88.65,531.132 86.725,531.292 C64.11,533.177 46.072,535.119 45.426,535.739 C44.987,536.162 44.187,552.213 43.648,571.408 C43.109,590.604 42.249,613.285 41.736,621.81 C41.223,630.335 40.552,648.785 40.244,662.81 C39.937,676.835 39.512,691.46 39.3,695.31 L38.916,702.31 L76.07,702.31 C98.887,702.31 119.592,702.839 129.725,703.682 C152.4,705.569 152.605,706.086 131.627,708.487 C120.496,709.761 108.3,710.12 77.924,710.067 L38.623,709.999 L38.924,714.654 L39.225,719.31 L59.725,719.535 C93.911,719.911 135.377,723.819 137.244,726.841 C137.498,727.251 128.147,727.829 116.465,728.126 C104.783,728.423 88.925,729.356 81.225,730.199 C68.46,731.597 66.01,731.588 53.455,730.091 C44.994,729.083 39.346,728.809 38.806,729.38 C38.324,729.891 37.625,732.605 37.253,735.411 L36.578,740.512 L53.402,741.158 C62.654,741.514 77.425,742.099 86.225,742.46 C95.412,742.836 113.934,742.562 129.725,741.817 C152.102,740.762 168.826,740.754 219.506,741.773 C253.761,742.462 287.961,743.315 295.506,743.668 C311.308,744.407 363.028,744.15 382.377,743.236 z" fill="#FFCB65" id="path89771"/>
    <path d="M256.225,689.254 C249.59,687.409 243.948,684.66 243,682.81 C242.577,681.985 242.097,650.612 241.933,613.092 L241.635,544.874 L245.43,543.152 C250.707,540.758 275.097,540.206 302.949,541.852 L324.672,543.135 L326.449,548.222 C328.056,552.825 328.219,557.74 328.164,599.81 C328.127,628.367 327.572,653.975 326.726,666.176 L325.349,686.042 L320.787,688.132 C316.553,690.072 314.246,690.238 288.725,690.433 C267.776,690.594 260.034,690.313 256.225,689.254 z" fill="#000000" id="path89769"/>
    <path d="M311.617,676.181 L314.519,675.601 L315.136,657.955 C315.475,648.25 316.181,634.01 316.704,626.31 C317.227,618.61 317.939,599.213 318.286,583.205 L318.917,554.101 L305.071,553.446 C268.44,551.716 255.768,551.529 254.358,552.699 C253.579,553.345 252.659,555.772 252.314,558.092 C251.285,564.993 251.561,642.124 252.67,657.81 C253.234,665.785 253.702,673.619 253.71,675.219 L253.725,678.128 L281.22,677.445 C296.343,677.069 310.021,676.5 311.617,676.181 z" fill="#CCCCFE" id="path89767"/>
    <path d="M266.769,668.835 C265.362,666.108 264.856,638.096 265.548,601.31 L266.225,565.31 L268.754,565.015 C270.625,564.796 271.891,565.543 273.622,567.885 C275.959,571.045 275.961,571.083 275.334,593.18 C274.989,605.351 274.433,625.478 274.1,637.907 L273.495,660.504 L278.86,661.148 C281.811,661.502 286.111,661.796 288.416,661.801 C290.721,661.806 292.885,662.26 293.225,662.81 C293.565,663.36 296.291,663.81 299.284,663.81 C305.181,663.81 306.396,665.214 301.975,666.921 C299.158,668.008 283.818,669.734 273.39,670.136 C269.004,670.305 267.36,669.982 266.769,668.835 z" fill="#000000" id="path89765"/>
    <path d="M99.64,679.635 C97.072,677.227 97.051,677.08 96.393,656.76 C96.028,645.513 95.719,624.835 95.705,610.81 C95.691,596.785 95.263,579.91 94.754,573.31 C94.245,566.71 93.745,556.36 93.643,550.31 L93.458,539.31 L99.342,538.717 C102.577,538.392 119.543,538.349 137.043,538.621 L168.86,539.117 L172.462,544.714 C174.754,548.274 176.016,551.401 175.933,553.31 C174.08,595.615 173.757,661.351 175.335,674.905 L175.87,679.5 L154.047,680.169 C142.045,680.537 125.475,681.113 117.225,681.448 C102.338,682.054 102.205,682.041 99.64,679.635 z" fill="#000000" id="path89763"/>
    <path d="M163.376,669.492 C164.348,668.519 165.963,579.753 165.269,565.401 L164.5,549.493 L134.94,550.157 C118.682,550.522 105.195,551.006 104.968,551.233 C104.213,551.988 104.395,649.146 105.171,659.516 L105.934,669.723 L112.58,670.146 C120.24,670.633 162.782,670.086 163.376,669.492 z" fill="#CCCCFE" id="path89761"/>
    <path d="M117.626,654.416 C115.389,650.747 115.247,649.198 117.048,648.109 C118.117,647.464 118.228,643.271 117.625,626.31 C117.215,614.76 116.547,595.903 116.14,584.406 L115.401,563.502 L119.775,564.202 C122.181,564.586 124.24,564.993 124.351,565.105 C124.462,565.218 125.041,568.83 125.639,573.132 C126.969,582.708 127.031,597.821 125.798,611.81 C125.289,617.585 124.577,627.789 124.215,634.486 L123.558,646.662 L128.392,647.279 C133.187,647.891 141.537,649.126 149.225,650.359 L153.225,651.001 L149.68,652.824 C145.369,655.041 136.197,656.785 126.634,657.208 C119.615,657.517 119.495,657.48 117.626,654.416 z" fill="#000000" id="path89759"/>
    <path d="M829.225,488.885 C845.175,488.411 858.9,487.934 859.725,487.825 C862.06,487.517 916.38,485.795 934.225,485.464 C957.309,485.036 971.151,484.395 971.725,483.728 C972,483.409 975.15,483.445 978.725,483.81 C982.3,484.174 985.455,484.133 985.736,483.718 C986.451,482.664 1004.662,482.114 1004.007,483.167 C1003.714,483.638 1004.318,483.786 1005.35,483.496 C1011.434,481.783 1035.323,480.797 1092.225,479.91 C1130.865,479.307 1142.176,478.837 1145.725,477.684 C1154.874,474.711 1150.532,473.219 1128.725,471.841 C1120.2,471.302 1106.434,470.808 1098.134,470.743 C1082.645,470.621 1076.435,469.51 1085.346,468.455 C1094.701,467.347 1110.377,466.694 1132.225,466.503 L1154.225,466.31 L1154.513,459.654 L1154.802,452.999 L1149.013,452.555 C1142.141,452.027 1110.675,450.971 1098.975,450.877 C1093.715,450.834 1090.725,450.414 1090.725,449.717 C1090.725,448.969 1094.439,448.729 1102.475,448.957 C1108.937,449.14 1114.675,449.012 1115.225,448.672 C1115.775,448.332 1119.815,447.98 1124.203,447.889 C1128.591,447.798 1133.991,447.311 1136.203,446.807 C1138.415,446.302 1143.487,445.381 1147.475,444.759 L1154.725,443.629 L1154.725,436.194 L1154.725,428.759 L1141.475,429.272 C1134.187,429.554 1113.825,430.031 1096.225,430.331 C1078.625,430.632 1059.5,431.054 1053.725,431.269 C982.631,433.92 952.426,434.869 937.975,434.905 C927.422,434.932 920.725,435.329 920.725,435.927 C920.725,436.512 916.593,436.846 910.475,436.758 C904.837,436.676 890.325,437.116 878.225,437.735 C866.125,438.354 846.325,439.31 834.225,439.86 C790.38,441.853 776.381,442.754 775.497,443.638 C775.001,444.133 774.512,454.705 774.41,467.131 L774.225,489.723 L779.225,490.139 C781.975,490.368 787.825,490.373 792.225,490.151 C796.625,489.928 813.275,489.359 829.225,488.885 z" fill="#FD9800" id="path89757"/>
    <path d="M189.725,476.144 C201.55,475.994 219.292,475.398 229.152,474.819 C239.013,474.24 247.338,474.128 247.652,474.571 C248.316,475.505 253.725,475.613 253.725,474.693 C253.725,473.914 321.292,471.565 349.379,471.367 C353.863,471.336 357.324,470.972 357.07,470.56 C356.815,470.147 365.803,469.81 377.043,469.81 C394.475,469.81 397.673,469.577 398.795,468.225 C399.739,467.087 400.127,462.641 400.168,452.475 L400.225,438.31 L371.225,438.62 C355.275,438.791 339.75,439.348 336.725,439.859 C333.7,440.37 267.325,441.237 189.225,441.786 C111.125,442.335 47.112,442.79 46.975,442.797 C46.837,442.804 46.725,446.016 46.725,449.935 L46.725,457.06 L49.975,456.405 C55.675,455.257 115.725,456.97 115.725,458.281 C115.725,459.025 111.359,459.883 103.475,460.686 C74.812,463.609 61.827,464.713 55.586,464.76 C46.973,464.824 44.444,466.623 45.354,472.038 C45.916,475.385 46.35,475.829 49.602,476.37 C51.595,476.702 53.675,477.163 54.225,477.395 C55.09,477.76 80.268,477.527 189.725,476.144 z" fill="#FD9800" id="path89755"/>
    <path d="M75.395,435.867 C95.493,434.589 147.719,433.085 235.725,431.251 C276.15,430.408 313.725,429.504 319.225,429.241 C324.725,428.979 337.55,428.327 347.725,427.793 C388.806,425.635 396.607,425.467 398.103,426.709 C398.897,427.368 399.724,427.547 399.941,427.108 C400.526,425.924 398.995,403.378 397.782,395.31 C397.202,391.452 396.316,356.664 395.809,317.81 C395.01,256.715 395.081,247.11 396.337,245.814 C397.422,244.696 399.642,244.39 405.15,244.602 L412.513,244.884 L412.369,225.097 L412.225,205.31 L404.225,204.467 C394.4,203.432 57.312,203.094 53.475,204.116 C51.132,204.739 50.725,205.371 50.725,208.378 C50.725,210.32 51.362,213.14 52.14,214.645 C54.657,219.513 57.692,220.337 72.026,220.048 C80.632,219.874 85.454,220.17 86.366,220.927 C87.188,221.609 89.605,221.858 92.373,221.546 C95.077,221.241 98.266,221.554 100.035,222.298 C102.978,223.535 102.864,223.589 96.145,224.142 C92.339,224.455 87.425,224.741 85.225,224.778 C83.025,224.814 78.525,225.277 75.225,225.806 C71.925,226.334 64.961,227.253 59.749,227.847 C54.537,228.442 50.153,229.048 50.006,229.195 C49.859,229.342 50.073,233.418 50.482,238.254 L51.225,247.045 L55.225,247.348 C57.425,247.514 64.962,247.956 71.975,248.331 C78.987,248.705 84.725,249.341 84.725,249.744 C84.725,250.147 84.162,250.519 83.475,250.571 C82.787,250.623 78.606,251.588 74.184,252.717 C69.761,253.845 64.361,254.994 62.184,255.27 C60.006,255.546 56.339,256.053 54.034,256.396 L49.843,257.019 L49.258,262.164 C48.936,264.994 48.572,299.935 48.449,339.81 L48.225,412.31 L71.725,412.971 C96.862,413.679 108.124,414.398 113.725,415.653 C116.774,416.336 116.129,416.542 108.725,417.251 C97.477,418.329 93.389,418.624 79.725,419.34 C73.4,419.671 66.2,420.342 63.725,420.831 C61.25,421.319 56.412,422.008 52.975,422.362 L46.725,423.006 L46.725,428.889 C46.725,434.493 46.855,434.8 49.475,435.378 C50.987,435.712 52.675,436.135 53.225,436.318 C55.053,436.928 60.424,436.819 75.395,435.867 z" fill="#FFCB65" id="path89753"/>
    <path d="M309.225,402.76 C306.475,402.329 293.637,402.233 280.696,402.546 C254.094,403.19 250.43,402.816 248.074,399.22 C245.286,394.965 243.811,371.732 243.763,331.31 C243.718,293.311 245.06,265.04 247.205,258.829 L248.42,255.31 L262.822,254.682 C283.708,253.771 327.426,253.507 328.683,254.284 C329.274,254.649 329.528,255.319 329.248,255.773 C328.968,256.226 329.424,258.24 330.263,260.247 C334.158,269.568 336.335,319.25 333.641,337.31 C333.067,341.16 332.577,355.78 332.553,369.799 L332.51,395.288 L328.249,399.549 C324.332,403.466 323.594,403.799 319.107,403.676 C316.422,403.603 311.975,403.19 309.225,402.76 z" fill="#000000" id="path89751"/>
    <path d="M322.161,390.06 C322.522,387.997 323.069,358.902 323.378,325.404 L323.939,264.498 L307.082,265.181 C292.657,265.766 256.563,267.586 256.058,267.754 C255.694,267.875 253.609,278.574 252.701,284.981 C250.841,298.091 249.799,344.499 250.963,362.31 C251.829,375.544 252.482,380.97 253.866,386.427 L254.911,390.544 L261.068,391.245 C264.454,391.631 275.325,392.183 285.225,392.472 C295.125,392.761 303.412,393.18 303.642,393.404 C303.871,393.627 307.984,393.81 312.782,393.81 L321.506,393.81 z" fill="#CCCCFE" id="path89749"/>
    <path d="M271.996,378.897 C269.662,377.809 266.833,375.443 265.684,373.618 C263.831,370.676 263.68,369.424 264.317,362.31 C265.126,353.278 265.304,317.95 264.656,295.151 C264.419,286.814 264.498,279.716 264.832,279.378 C265.989,278.205 268.806,280.066 270.328,283.009 C271.169,284.635 272.764,291.218 273.873,297.638 C275.715,308.307 275.83,311.897 275.213,339.446 L274.538,369.582 L278.881,370.221 C281.27,370.572 289.3,371.255 296.725,371.738 C312.358,372.756 310.725,372.483 310.725,374.08 C310.725,375.674 294.086,379.504 283.725,380.295 C277.54,380.767 275.483,380.522 271.996,378.897 z" fill="#000000" id="path89747"/>
    <path d="M94.309,396.3 C92.808,394.909 91.682,392.733 91.621,391.107 C91.564,389.569 91.316,384.26 91.069,379.31 C90.376,365.406 90.361,287.828 91.048,273.81 C91.998,254.451 91.721,255.178 98.499,254.249 C101.648,253.817 104.627,253.562 105.118,253.684 C106.191,253.949 130.278,252.195 144.225,250.836 C149.725,250.3 158.414,249.628 163.533,249.342 L172.841,248.823 L175.413,254.566 C177.752,259.789 178.071,262.123 178.931,280.31 C179.996,302.834 178.407,386.887 176.838,391.013 C175.92,393.427 175.525,393.518 163.059,394.193 C124.902,396.259 116.741,396.75 111.725,397.284 C97.132,398.836 97.04,398.831 94.309,396.3 z" fill="#000000" id="path89745"/>
    <path d="M140.725,384.837 C148.15,384.297 157.487,383.568 161.475,383.215 L168.725,382.575 L168.801,369.442 C168.842,362.219 169.076,348.66 169.319,339.31 C169.562,329.96 169.221,308.022 168.56,290.56 L167.359,258.81 L163.792,258.804 C156.902,258.791 125.129,260.885 116.225,261.939 C102.406,263.574 101.763,263.763 101.802,266.181 C101.821,267.352 101.38,279.785 100.823,293.81 C100.266,307.835 99.791,334.567 99.768,353.214 L99.725,387.117 L113.475,386.467 C121.037,386.11 133.3,385.376 140.725,384.837 z" fill="#CCCCFE" id="path89743"/>
    <path d="M122.533,371.625 C119.931,370.368 117.582,368.456 117.26,367.334 C115.341,360.632 113.188,296.82 114.533,286.48 C115.639,277.974 116.139,276.824 117.945,278.63 C121.61,282.295 123.076,296.374 124.573,342.295 L125.225,362.28 L129.225,363.133 C131.425,363.602 135.587,364.213 138.475,364.49 C141.362,364.768 143.725,365.353 143.725,365.792 C143.725,366.23 147.662,366.359 152.475,366.078 C162.377,365.501 162.616,366.51 153.225,369.255 C145.609,371.48 139.676,372.665 132.725,373.35 C128.303,373.785 126.305,373.447 122.533,371.625 z" fill="#000000" id="path89741"/>
    <path d="M843.225,431.788 C859.725,431.247 881.1,430.546 890.725,430.231 C910.55,429.581 917.616,429.265 943.725,427.858 C953.9,427.309 979.775,425.933 1001.225,424.798 C1022.675,423.663 1047.65,422.308 1056.725,421.786 C1071.72,420.923 1092.741,419.892 1131.127,418.137 C1140.572,417.705 1146.503,416.943 1149.627,415.76 L1154.225,414.019 L1154.519,408.039 C1154.806,402.219 1154.74,402.043 1152.019,401.416 C1150.482,401.063 1140.45,400.549 1129.725,400.274 C1110.739,399.789 1094.078,398.191 1093.201,396.77 C1092.962,396.384 1094.669,395.777 1096.995,395.422 C1103.862,394.374 1139.126,391.939 1139.962,392.456 C1140.384,392.717 1143.878,392.62 1147.727,392.241 L1154.725,391.551 L1154.725,382.83 L1154.725,374.109 L1142.975,372.93 C1123.878,371.014 1100.449,369.818 1094.896,370.476 C1090.739,370.968 1089.725,370.801 1089.725,369.621 C1089.725,367.093 1099.199,365.606 1120.725,364.756 C1132,364.311 1144.2,363.916 1147.837,363.878 L1154.449,363.81 L1155.116,358.138 C1155.483,355.019 1155.432,352.131 1155.004,351.72 C1154.575,351.309 1146.35,350.482 1136.725,349.883 C1099.212,347.547 1086.725,346.052 1086.725,343.896 C1086.725,342.316 1092.427,341.929 1117.301,341.818 C1139.805,341.718 1153.926,340.942 1155.128,339.74 C1155.371,339.497 1155.684,336.151 1155.825,332.304 L1156.08,325.31 L1128.153,324.167 C1097.33,322.905 1082.889,321.312 1084.816,319.386 C1085.624,318.577 1115.324,316.675 1135.725,316.126 C1147,315.822 1156.275,315.514 1156.335,315.442 C1156.396,315.369 1156.171,311.986 1155.835,307.923 L1155.225,300.537 L1148.225,300.22 C1141.009,299.894 1124.01,298.437 1108.225,296.792 C1103.275,296.276 1095.264,295.577 1090.423,295.238 C1084.431,294.818 1081.743,294.252 1082.005,293.466 C1082.275,292.65 1090.407,292.123 1109.638,291.675 C1124.626,291.326 1141.176,290.451 1146.416,289.732 L1155.944,288.424 L1155.334,283.977 C1154.999,281.531 1154.725,278.747 1154.725,277.789 C1154.725,275.025 1147.476,273.809 1131.032,273.815 C1104.917,273.824 1079.725,270.78 1079.725,267.616 C1079.725,265.753 1083.496,265.519 1094.636,266.692 C1110.092,268.319 1138.374,268.901 1143.71,267.702 C1146.065,267.172 1149.318,266.585 1150.937,266.397 C1152.556,266.208 1154.255,265.661 1154.713,265.182 C1155.475,264.382 1156.198,258.036 1155.865,255.06 C1155.757,254.096 1149.944,253.81 1130.527,253.81 C1106.624,253.81 1095.465,253.047 1082.535,250.531 C1079.406,249.922 1077.067,249.066 1077.337,248.628 C1077.608,248.191 1077.13,248.101 1076.277,248.428 C1075.423,248.756 1074.725,248.525 1074.725,247.917 C1074.725,247.213 1077.364,246.796 1081.975,246.772 C1091.702,246.722 1105.968,245.944 1118.649,244.773 C1124.382,244.243 1132.932,243.77 1137.649,243.722 C1142.366,243.674 1148.475,243.336 1151.225,242.972 C1156.099,242.326 1156.233,242.219 1156.526,238.715 L1156.827,235.12 L1140.026,234.359 C1130.785,233.941 1111.434,233.309 1097.023,232.954 C1071.194,232.319 1067.398,231.766 1069.171,228.897 C1069.633,228.15 1080.072,227.81 1102.536,227.81 C1130.958,227.81 1136.587,227.551 1145.624,225.829 C1151.342,224.739 1156.116,223.727 1156.234,223.579 C1156.352,223.431 1156.706,220.092 1157.02,216.159 L1157.592,209.007 L1143.908,208.159 C1113.562,206.276 910.852,207.455 853.225,209.849 C835.982,210.566 820.003,210.568 801.725,209.855 C787.15,209.287 769.251,208.82 761.95,208.816 L748.674,208.81 L748.95,224.56 L749.225,240.31 L760.511,240.467 C767.385,240.563 772.344,241.079 773.196,241.786 C775.416,243.628 776.041,248.385 774.407,250.996 C770.384,257.424 770.343,412.435 774.36,431.034 L774.948,433.757 L794.086,433.265 C804.613,432.994 826.725,432.329 843.225,431.788 z" fill="#FFCB65" id="path89739"/>
    <path d="M834.021,408.005 C833.691,407.073 832.799,405.583 832.039,404.694 C830.823,403.272 829.66,396.638 828.289,383.31 C826.11,362.131 825.158,268.828 827.079,264.707 C827.973,262.788 836.025,262.184 879.051,260.806 L907.877,259.883 L914.301,264.008 L920.725,268.132 L920.81,313.721 C920.857,338.795 920.853,361.56 920.802,364.31 C920.751,367.06 921.416,375.16 922.281,382.31 C924.584,401.341 924.659,399.995 921.225,401.13 C919.575,401.675 905.136,402.207 889.138,402.313 C864.616,402.474 859.594,402.755 857.138,404.103 C855.536,404.982 851.3,406.127 847.725,406.646 C844.15,407.165 839.739,408.065 837.923,408.645 C835.125,409.539 834.529,409.441 834.021,408.005 z" fill="#000000" id="path89737"/>
    <path d="M871.612,393.259 C888.449,393.115 903.35,392.787 904.725,392.531 C906.1,392.275 908.012,392.008 908.975,391.937 C910.605,391.818 910.723,389.499 910.696,358.06 C910.68,339.497 910.2,313.735 909.628,300.81 C909.057,287.885 908.592,276.522 908.595,275.56 C908.6,273.925 906.194,273.81 872.007,273.81 L835.414,273.81 L836.107,288.06 C837.496,316.585 838.659,355.766 838.691,375.119 C838.716,389.659 839.028,394.741 839.862,394.225 C840.488,393.838 854.776,393.404 871.612,393.259 z" fill="#CCCCFE" id="path89735"/>
    <path d="M856.975,377.994 C854.443,376.789 853.725,375.824 853.725,373.628 C853.725,371.79 853.203,370.81 852.225,370.81 C850.619,370.81 850.151,368.282 851.592,367.392 C852.078,367.091 852.049,364.978 851.526,362.583 C851.012,360.233 850.172,356.391 849.659,354.045 C849.145,351.7 848.698,347.65 848.665,345.045 C848.633,342.441 848.253,338.169 847.823,335.552 C847.232,331.964 847.38,330.511 848.425,329.644 C850.25,328.129 851.121,329.138 853.745,335.81 C855.569,340.449 855.903,343.305 855.878,354.057 L855.848,366.803 L864.537,366.922 C869.315,366.987 874.912,367.033 876.975,367.025 C879.752,367.013 880.725,367.424 880.725,368.61 C880.725,369.854 880.992,369.943 881.925,369.01 C883.444,367.491 886.894,367.474 890.178,368.97 L892.724,370.13 L888.908,371.839 C886.81,372.779 879.947,374.753 873.659,376.227 C867.37,377.7 861.775,379.049 861.225,379.223 C860.675,379.398 858.762,378.845 856.975,377.994 z" fill="#000000" id="path89733"/>
    <path d="M1014.725,407.776 C1012.8,407.32 1006.725,406.663 1001.225,406.316 C988.598,405.519 971.744,403.871 969.545,403.218 C968.305,402.85 967.97,401.88 968.264,399.515 C968.483,397.752 968.884,384.61 969.154,370.31 C969.938,328.848 971.847,271.604 972.565,268.026 L973.225,264.742 L992.225,264.389 C1002.675,264.195 1021.35,263.704 1033.725,263.298 L1056.225,262.561 L1059.054,265.573 L1061.883,268.584 L1060.057,283.447 C1058.503,296.097 1058.231,306.076 1058.228,350.479 L1058.228,402.649 L1053.228,404.605 C1050.478,405.68 1046.376,407.066 1044.112,407.685 C1039.431,408.964 1019.998,409.024 1014.728,407.776 z" fill="#000000" id="path89731"/>
    <path d="M1026.814,395.159 L1046.225,394.509 L1046.25,378.409 C1046.264,369.555 1046.594,354.435 1046.984,344.81 C1047.375,335.185 1047.939,318.085 1048.238,306.81 C1048.537,295.535 1049.018,283.71 1049.306,280.534 L1049.83,274.757 L1017.301,275.06 C996.181,275.257 984.401,275.734 983.715,276.42 C983.093,277.042 982.276,286.906 981.729,300.393 C980.492,330.895 979.615,394.366 980.419,395.17 C981.241,395.993 1002.093,395.988 1026.814,395.159 z" fill="#CCCCFE" id="path89729"/>
    <path d="M993.314,386.911 C988.283,384.033 988.153,383.225 990.128,367.12 C991.127,358.974 992.578,349.385 993.353,345.81 C995.514,335.843 997.978,326.772 998.634,326.365 C998.959,326.163 999.091,338.162 998.928,353.03 L998.632,380.061 L1001.428,379.389 C1007.32,377.975 1035.317,377.52 1039.125,378.777 C1043.879,380.346 1043.257,382.118 1037.642,383.01 C1035.213,383.396 1030.75,384.192 1027.725,384.778 C1022.47,385.798 1010.344,387.324 1000.725,388.177 C997.733,388.442 995.25,388.018 993.314,386.911 z" fill="#000000" id="path89727"/>
    <path d="M747.225,422.178 C750.525,421.811 755.027,421.447 757.23,421.37 C763.668,421.145 763.938,420.693 763.147,411.463 C762.762,406.979 762.121,402.41 761.721,401.31 C761.005,399.337 760.08,399.31 693.11,399.297 C655.773,399.29 614.2,398.956 600.725,398.553 C531.008,396.473 485.363,395.697 449.725,395.988 L410.225,396.31 L409.945,409.06 C409.73,418.863 409.961,421.83 410.945,421.897 C418.268,422.396 423.097,422.849 423.305,423.057 C423.896,423.648 741.774,422.786 747.225,422.178 z" fill="#FE6500" id="path89725"/>
    <path d="M1138.454,393.205 C1138.122,392.873 1137.259,392.838 1136.537,393.127 C1135.74,393.446 1135.977,393.683 1137.142,393.731 C1138.196,393.774 1138.786,393.538 1138.454,393.206 z" fill="#00FF00" id="path89723"/>
    <path d="M740.725,389.687 C747.05,389.091 754.544,388.176 757.379,387.655 C763.437,386.541 763.479,386.447 763.68,373.272 L763.818,364.235 L751.521,361.886 C744.758,360.594 735.85,359.327 731.725,359.071 C721.082,358.411 716.451,357.488 715.929,355.921 C715.575,354.861 716.328,354.706 719.35,355.217 C727.155,356.536 756.913,357.07 760.629,355.957 L764.267,354.867 L763.898,347.088 C763.695,342.81 763.172,338.931 762.736,338.469 C762.3,338.006 755.931,337.202 748.584,336.683 C731.146,335.449 719.497,333.631 718.974,332.06 C718.65,331.084 723.52,330.81 741.142,330.81 L763.725,330.81 L763.725,323.785 C763.725,317.111 763.593,316.71 761.082,315.755 C759.629,315.203 749.617,314.365 738.832,313.894 C719.731,313.059 713.199,311.872 714.037,309.387 C714.411,308.278 718.286,308.201 742.225,308.833 C749.375,309.022 757.143,308.828 759.487,308.403 L763.75,307.63 L763.487,299.005 L763.225,290.381 L750.225,290.645 C737.958,290.895 719.973,289.61 716.364,288.224 C713.954,287.3 714.357,284.141 716.975,283.44 C718.212,283.108 728,282.786 738.725,282.724 C749.45,282.661 759.35,282.3 760.725,281.92 C762.793,281.349 763.277,280.528 763.525,277.165 L763.826,273.1 L758.525,272.464 C755.61,272.113 748.95,271.803 743.725,271.774 C738.5,271.746 730.85,271.289 726.725,270.761 C722.6,270.232 716.849,269.513 713.946,269.162 C703.371,267.884 708.133,267.022 724.98,267.164 C741.377,267.302 749.05,266.872 758.362,265.292 C762.167,264.647 762.547,264.298 763.101,260.95 C764.25,254.001 763.894,251.889 761.475,251.304 C759.666,250.867 671.438,251.246 574.725,252.107 C566.2,252.182 530.2,251.791 494.725,251.237 C450.331,250.544 425.861,250.554 416.225,251.27 L402.225,252.31 L401.864,267.81 C401.512,282.88 403.313,355.184 404.59,377.3 L405.225,388.29 L415.225,389.606 C422.368,390.545 430.367,390.718 443.225,390.209 C464.435,389.369 491.948,389.436 610.225,390.619 C703.63,391.552 722.373,391.418 740.725,389.687 z" fill="#FECA98" id="path89721"/>
    <path d="M678.13,371.7 C676.6,370.006 676.225,368.055 676.225,361.803 C676.225,354.394 676.065,353.839 672.928,350.387 C665.191,341.874 662.652,335.585 666.541,334.568 C668.379,334.087 672.725,336.873 672.725,338.532 C672.725,339.935 678.429,343.81 680.494,343.81 C681.512,343.81 684.717,341.785 687.616,339.31 C693.041,334.679 698.725,333.12 698.725,336.263 C698.725,338.33 696.562,342.81 695.564,342.81 C695.103,342.81 694.725,343.321 694.725,343.945 C694.725,345.083 690.138,349.81 689.034,349.81 C687.304,349.81 685.782,353.96 685.733,358.81 C685.64,368.017 683.699,373.715 680.63,373.794 C680.303,373.802 679.178,372.86 678.13,371.7 z" fill="#0266FF" id="path89719"/>
    <path d="M549.201,336.31 C539.049,336.31 538.797,336.714 538.756,353.026 C538.731,363.046 539.09,366.509 540.448,369.357 C541.395,371.344 542.334,372.484 542.532,371.89 C542.73,371.296 543.466,370.81 544.168,370.81 C544.961,370.81 545.678,368.847 546.059,365.636 C546.396,362.79 547.125,360.01 547.678,359.456 C549.243,357.892 553.405,360.618 555.188,364.374 C556.952,368.091 558.452,368.938 560.975,367.64 C563.114,366.539 563.193,364.229 561.219,360.444 C559.36,356.881 559.363,353.068 561.225,349.81 C563.527,345.782 563.038,342.484 559.659,339.247 C556.832,336.539 556.016,336.31 549.202,336.31 z M550.649,343.409 C553.175,343.424 555.725,344.598 555.725,346.134 C555.725,348.084 548.227,350.911 546.811,349.495 C544.921,347.605 545.618,344.801 548.225,343.81 C548.967,343.528 549.807,343.404 550.649,343.409 z" fill="#0266FF" id="path89717"/>
    <path d="M512.549,333.177 C510.818,333.23 508.953,333.888 506.371,335.11 C499.844,338.201 498.237,341.397 498.233,351.31 C498.23,358.242 500.623,365.44 504.422,369.925 C505.54,371.245 506.653,371.379 510.508,370.663 C515.716,369.696 521.819,367.121 522.959,365.411 C524.151,363.623 523.829,352.312 522.549,351.032 C521.647,350.13 521.715,349.443 522.84,348.083 C523.835,346.881 524.133,345.031 523.766,342.343 C523.343,339.243 522.472,337.873 519.784,336.066 C516.775,334.044 514.774,333.109 512.549,333.177 z M513.514,341.812 C516.213,341.71 516.349,343.15 513.535,345.771 C510.493,348.605 507.725,348.442 507.725,345.427 C507.725,343.801 508.44,342.852 509.975,342.441 C511.43,342.051 512.614,341.845 513.514,341.812 z M514.633,355.593 C516.838,355.589 518.725,356.469 518.725,357.771 C518.725,358.244 516.782,359.571 514.409,360.72 C509.148,363.266 507.721,363.34 507.741,361.06 C507.764,358.336 509.103,356.849 512.379,355.909 C513.127,355.695 513.898,355.594 514.633,355.593 z" fill="#0266FF" id="path89713"/>
    <path d="M640.563,334.81 C635.767,334.81 633.439,335.374 630.063,337.353 L625.725,339.894 L625.725,353.417 C625.725,360.855 626.191,367.812 626.76,368.876 C627.333,369.947 628.845,370.81 630.149,370.81 C632.055,370.81 632.659,370.098 633.326,367.06 C633.779,364.997 634.117,362.297 634.078,361.06 C634.01,358.877 635.208,358.29 638.725,358.782 C639.55,358.898 640.376,359.402 640.559,359.901 C640.742,360.401 641.436,360.81 642.102,360.81 C642.768,360.81 645.039,362.632 647.149,364.859 C652.091,370.074 654.259,369.77 654.127,363.878 C654.049,360.364 653.51,359.129 651.377,357.575 C648.33,355.356 647.933,351.85 650.231,347.444 C651.964,344.121 652.16,341.197 650.709,340.3 C650.15,339.954 649.97,339.222 650.309,338.673 C650.648,338.124 649.982,337.428 648.826,337.126 C647.671,336.824 646.725,336.178 646.725,335.692 C646.725,335.207 643.952,334.81 640.563,334.81 z M637.725,343.81 C643.168,343.81 644.354,345.148 639.975,346.347 C634.244,347.916 632.725,347.664 632.725,345.144 C632.725,344.21 634.225,343.81 637.725,343.81 z" fill="#0266FF" id="path89707"/>
    <path d="M596.744,336.81 C591.37,336.81 588.065,339.493 584.692,346.595 C581.538,353.233 579.642,364.545 581.063,368.249 C582.324,371.537 585.271,369.887 587.973,364.378 C590.481,359.265 590.899,358.906 595.11,358.275 C600.71,357.435 601.39,357.871 602.229,362.835 C603.039,367.631 604.956,369.824 607.707,369.105 C609.974,368.512 610.298,365.758 608.789,359.925 C608.275,357.936 607.094,352.812 606.166,348.536 C604.314,340 601.752,336.81 596.744,336.81 z M597.784,344.81 C599.187,344.81 599.725,345.502 599.725,347.31 C599.725,349.156 599.194,349.81 597.694,349.81 C595.527,349.81 594.124,347.592 595.196,345.858 C595.552,345.282 596.716,344.81 597.784,344.81 z" fill="#0266FF" id="path89703"/>
    <path d="M440.045,366.177 C438.562,363.914 438.188,361.073 438.026,350.854 C437.779,335.235 438.21,332.81 441.233,332.81 C444.306,332.81 446.725,338.955 446.725,346.765 C446.725,355.004 448.056,358.194 451.167,357.414 C456.077,356.181 460.302,365.817 455.475,367.24 C454.237,367.605 450.669,368.14 447.545,368.429 C442.179,368.925 441.765,368.801 440.045,366.177 z" fill="#0266FF" id="path89699"/>
    <path d="M475.288,366.879 C472.875,364.213 471.756,358.631 471.867,349.81 C471.999,339.35 472.763,336.377 475.418,335.998 C478.536,335.553 480.494,339.12 481.648,347.343 C482.737,355.107 482.606,357.629 480.836,362.98 C479.136,368.12 477.47,369.291 475.288,366.879 z" fill="#0266FF" id="path89697"/>
    <path d="M658.731,312.892 C658.184,310.922 657.734,308.324 657.731,307.119 C657.728,305.914 657.275,304.65 656.725,304.31 C655.452,303.523 655.403,289.81 656.673,289.81 C657.194,289.81 657.607,287.046 657.591,283.669 C657.574,280.098 658.042,277.232 658.709,276.819 C659.34,276.429 664.723,276.025 670.671,275.921 L681.486,275.731 L681.987,279.02 C682.263,280.829 682.398,282.416 682.287,282.545 C682.177,282.675 678.293,283.37 673.656,284.089 C665.278,285.389 665.225,285.416 665.225,288.354 L665.225,291.31 L670.909,290.972 C678.942,290.494 680.89,291.27 680.089,294.628 C679.084,298.842 677.794,299.81 673.184,299.81 C667.326,299.81 665.725,300.597 665.725,303.476 L665.725,305.928 L675.431,305.496 C684.602,305.089 685.237,305.191 686.931,307.345 C690.178,311.472 689.326,312.372 680.975,313.643 C676.712,314.292 671.387,314.82 669.142,314.816 C666.896,314.812 664.749,315.119 664.371,315.497 C663.993,315.875 662.794,316.249 661.705,316.33 C660.236,316.438 659.47,315.553 658.731,312.892 z" fill="#0266FF" id="path89695"/>
    <path d="M576.856,312.246 C575.63,310.835 574.23,308.639 573.746,307.365 C572.181,303.25 572.481,288.921 574.319,279.995 C574.953,276.915 581.771,273.86 588.074,273.832 C593.964,273.805 599.725,276.305 599.725,278.888 C599.725,281.678 596.602,282.81 588.898,282.81 C581.498,282.81 580.33,283.583 581.421,287.755 C581.92,289.663 582.449,289.824 586.321,289.243 C590.243,288.655 590.953,288.884 593.693,291.624 C597.53,295.461 597.632,297.753 593.975,297.981 C592.462,298.075 590.461,298.201 589.528,298.261 C588.595,298.321 587.508,298.694 587.112,299.09 C586.716,299.486 585.342,299.81 584.058,299.81 C582.045,299.81 581.725,300.305 581.725,303.417 C581.725,306.3 582.043,306.901 583.312,306.414 C586.445,305.212 592.678,304.581 595.191,305.212 C597.387,305.763 597.659,306.243 597.104,308.582 C595.871,313.775 594.068,314.81 586.25,314.81 C579.807,314.81 578.861,314.552 576.856,312.246 z" fill="#0266FF" id="path89693"/>
    <path d="M617.225,312.81 C616.229,311.71 614.831,310.81 614.117,310.81 C610.456,310.81 607.24,291.438 610.379,288.298 C611.065,287.612 611.925,285.863 612.289,284.41 C613.474,279.687 622.712,273.749 628.725,273.845 C629.55,273.858 631.722,275.23 633.552,276.894 C637.301,280.303 636.792,282.146 631.826,283.139 C630.256,283.453 626.684,284.709 623.889,285.93 C617.749,288.611 615.621,292.665 616.605,299.81 L617.225,304.31 L622.114,304.62 C624.804,304.791 627.399,304.536 627.882,304.053 C628.385,303.55 627.794,301.413 626.494,299.04 C623.298,293.205 624.521,292.31 635.692,292.31 C640.569,292.31 644.864,292.615 645.237,292.988 C646.773,294.524 644.49,299.88 641.68,301.333 C639.716,302.349 638.415,304.111 637.585,306.883 C635.797,312.849 632.745,314.81 625.245,314.81 C620.305,314.81 618.665,314.401 617.225,312.81 z" fill="#0266FF" id="path89691"/>
    <path d="M442.145,310.513 C437.186,306.965 433.317,303.351 431.975,301.014 C430.021,294.291 430.353,287.833 434.156,283.071 C434.942,282.102 436.716,279.926 438.096,278.236 C442.868,272.392 452.702,271.548 456.43,276.662 C460.582,282.357 460.395,282.577 451.075,282.96 C443.962,283.252 442.323,283.638 441.101,285.31 C436.051,292.214 440.244,303.453 446.935,300.945 C456.329,297.424 458.205,297.8 459.309,303.422 C459.827,306.061 459.487,306.837 457.072,308.524 C455.506,309.618 452.875,310.773 451.225,311.091 C449.575,311.409 447.55,311.905 446.725,312.193 C445.9,312.48 443.839,311.724 442.145,310.513 z" fill="#0266FF" id="path89689"/>
    <path d="M489.604,272.208 C489.086,272.231 488.569,272.37 488.059,272.632 C487.051,273.15 484.066,274.08 481.426,274.7 C471.959,276.924 468.235,281.914 468.229,292.382 C468.225,299.719 471.276,305.117 477.327,308.472 C480.865,310.458 482.502,310.411 488.516,307.755 C494.127,305.672 496.615,302.995 498.287,297.243 C499.588,292.77 499.665,290.84 498.729,286.329 C496.912,277.578 493.23,272.049 489.604,272.208 z M485.618,279.878 C487.422,279.795 489.187,280.691 490.961,282.56 C493.264,284.985 493.478,285.783 492.774,289.31 C491.555,295.412 490.773,296.7 487.366,298.22 C481.386,300.888 479.198,300.942 476.881,298.476 C473.125,294.478 474.201,289.23 480.041,283.06 C481.971,281.021 483.813,279.961 485.618,279.878 z" fill="#0266FF" id="path89687"/>
    <path d="M513.62,308.528 C511.182,305.159 510.662,302.717 510.559,294.159 C510.468,286.67 512.212,277.81 513.776,277.81 C515.031,277.81 516.972,283.978 518.341,292.31 C519.629,300.152 519.319,299.81 525.129,299.81 C529.755,299.81 530.722,300.156 532.14,302.32 C534.505,305.929 532.778,308.81 528.249,308.81 C526.376,308.81 524.565,309.26 524.225,309.81 C523.885,310.36 521.721,310.796 519.416,310.778 C516.259,310.755 514.829,310.199 513.62,308.528 z" fill="#0266FF" id="path89683"/>
    <path d="M545.121,306.653 C544.682,305.364 544.301,304.01 544.274,303.643 C544.247,303.276 543.887,302.639 543.475,302.226 C543.062,301.814 542.725,297.029 542.725,291.593 C542.725,280.064 544.414,275.038 547.698,276.795 C549.608,277.817 549.879,278.98 551.261,292.06 L551.869,297.81 L556.056,297.81 C561.052,297.81 563.023,300.049 561.859,304.402 C561.208,306.836 560.585,307.228 557.167,307.361 C554.999,307.445 551.581,307.847 549.572,308.255 C546.312,308.916 545.833,308.744 545.121,306.653 z" fill="#0266FF" id="path89681"/>
    <path d="M470.104,243.725 C487.221,243.222 554.506,242.388 619.627,241.873 C715.465,241.114 738.194,240.685 738.895,239.623 C739.769,238.297 739.354,173.368 738.093,114.204 L737.408,82.098 L734.817,78.993 C730.652,74.004 721.788,69.412 707.532,64.859 C689.273,59.027 680.736,55.736 669.979,50.382 C664.925,47.867 660.564,45.81 660.287,45.81 C659.522,45.81 648.803,40.982 643.725,38.351 C641.25,37.069 635.625,34.554 631.225,32.763 C626.825,30.972 622.775,29.167 622.225,28.751 C621.675,28.336 617.175,26.334 612.225,24.303 C607.275,22.272 601.875,19.997 600.225,19.248 C598.575,18.499 593.904,16.701 589.845,15.254 C579.496,11.564 579.48,11.569 556.041,25.941 C550.092,29.588 538.7,35.862 530.725,39.882 C515.762,47.425 501.677,55.524 493.591,61.232 C491.043,63.031 486.543,65.289 483.591,66.249 C478.751,67.822 468.587,73.248 464.725,76.32 C463.9,76.976 461.2,78.592 458.725,79.911 C456.25,81.23 453.647,82.855 452.941,83.523 C452.234,84.19 447.284,87.212 441.941,90.238 C428.368,97.926 425.608,100.406 425.15,105.327 C424.946,107.517 424.336,114.035 423.795,119.81 C421.713,142.021 420.54,165.259 421.193,171.353 L421.873,177.709 L426.549,178.312 C429.121,178.643 432.125,179.211 433.225,179.574 C434.325,179.937 465.338,180.477 502.142,180.772 C556.156,181.206 569.143,181.563 569.497,182.624 C569.831,183.628 568.972,183.794 565.844,183.327 C560.249,182.493 484.946,185.639 481.28,186.86 C479.091,187.59 477.081,187.424 473.442,186.216 C469.34,184.853 465.692,184.69 450.887,185.208 C428.861,185.978 421.429,186.701 420.49,188.164 C419.203,190.171 419.605,205.466 420.975,206.603 C422.889,208.191 468.76,209.929 521.725,210.419 C570.005,210.866 578.087,211.222 577.535,212.881 C577.182,213.938 502.479,214.394 500.788,213.349 C500.202,212.986 494.21,213.173 487.473,213.764 C480.737,214.356 469.375,215.326 462.225,215.92 C455.075,216.515 445.85,217.424 441.725,217.941 C437.6,218.457 431.3,219.154 427.725,219.488 C424.15,219.823 420.894,220.595 420.49,221.203 C419.522,222.662 419.508,244.254 420.475,245.244 C420.887,245.666 425.221,245.702 430.104,245.325 C434.988,244.948 452.988,244.228 470.104,243.725 z" fill="#CC9866" id="path89679"/>
    <path d="M580.225,168.668 C578.025,168.151 575.212,167.98 573.973,168.288 C572.658,168.616 569.955,167.962 567.473,166.716 C559.449,162.687 546.81,153.738 544.608,150.525 C543.395,148.757 541.383,146.185 540.136,144.81 C537.252,141.63 533.083,133.311 530.987,126.553 C528.875,119.745 528.96,103.145 531.145,95.71 C535.424,81.146 544.263,64.957 551.909,57.676 C554.586,55.128 559.577,51.596 563,49.828 C568.719,46.874 570.2,46.57 581.225,46.089 C598.925,45.316 609.352,47.315 618.504,53.235 C622.349,55.723 627.274,59.907 629.449,62.534 C634.741,68.929 640.085,79.851 641.813,87.81 C643.42,95.206 643.475,116.871 641.901,122.016 C641.347,123.828 640.628,126.9 640.305,128.843 C639.74,132.23 636.343,137.364 627.453,148.265 C620.755,156.479 611.082,164.385 603.546,167.805 C598.796,169.96 587.499,170.379 580.225,168.668 z" fill="#000000" id="path89677"/>
    <path d="M594.894,155.198 C601.944,153.404 604.288,152.359 607.225,149.702 C617.51,140.396 625.03,133.007 626.024,131.232 C626.685,130.053 628.444,127.264 629.933,125.035 C634.456,118.266 635.998,109.219 634.651,97.355 C632.46,78.048 630.278,73.109 619.058,62.062 C606.39,49.588 592.607,47.306 572.225,54.308 C564.565,56.939 560.901,59.66 555.115,67.015 C545.093,79.753 540.619,88.598 538.115,100.626 C535.805,111.724 537.563,128.825 541.452,133.08 C542.574,134.306 544.212,136.737 545.093,138.481 C545.974,140.225 548.164,142.66 549.96,143.892 C551.756,145.124 554.424,147.232 555.891,148.577 C557.357,149.922 562.082,152.288 566.391,153.835 C575.713,157.183 585.298,157.641 594.894,155.198 z" fill="#FECA98" id="path89675"/>
    <path d="M582.934,144.377 C578.728,142.85 575.041,139.103 574.15,135.449 C573.545,132.967 573.702,132.661 575.339,133.138 C580.123,134.532 590.61,134.918 594.588,133.846 C600.216,132.331 608.707,126.856 616.62,119.641 C620.137,116.434 623.374,113.81 623.813,113.81 C624.885,113.81 627.725,117.939 627.725,119.497 C627.725,121.402 622.617,129.014 618.914,132.629 C613.963,137.463 609.06,140.247 600.347,143.173 C591.926,146.001 588.133,146.264 582.934,144.377 z" fill="#000000" id="path89673"/>
    <path d="M558.669,125.012 C555.015,121.148 552.868,107.305 554.645,99.065 C557.703,84.884 559.827,79.552 564.554,74.191 C570.013,67.999 575.231,65.201 582.516,64.561 C586.957,64.17 587.969,64.397 588.812,65.973 C590.2,68.565 589.151,69.81 585.579,69.81 C580.697,69.81 568.742,78.765 566.223,84.31 C561.214,95.334 560.508,104.787 563.765,117.221 C565.335,123.216 565.537,125.331 564.642,126.409 C562.979,128.413 561.577,128.085 558.669,125.012 z" fill="#000000" id="path89671"/>
    <path d="M849.725,200.35 C857.15,200.088 883.475,199.401 908.225,198.825 C932.975,198.249 959.525,197.308 967.225,196.735 C974.925,196.162 1018.35,195.562 1063.725,195.402 C1109.1,195.242 1148.025,194.816 1150.225,194.456 C1158.061,193.174 1159.096,192.781 1157.87,191.554 C1157.107,190.792 1156.725,185.171 1156.725,174.732 C1156.725,162.016 1156.442,158.819 1155.225,157.81 C1154.027,156.815 1153.725,156.818 1153.725,157.821 C1153.725,158.824 1132.102,158.953 1045.975,158.461 C986.712,158.122 936.65,157.594 934.725,157.286 C928.111,156.23 749.298,155.655 747.782,156.686 C746.65,157.455 746.574,158.183 747.43,160.061 C748.138,161.616 748.221,164.01 747.667,166.883 C747.197,169.318 746.792,176.355 746.768,182.521 C746.717,195.71 747.263,196.615 757.195,199.804 C762.826,201.613 765.641,201.711 799.725,201.284 C819.8,201.033 842.3,200.613 849.725,200.35 z" fill="#FD9800" id="path89669"/>
    <path d="M96.668,196.828 C113.995,195.574 172.073,193.863 202.971,193.695 C214.41,193.633 219.51,193.271 219.066,192.553 C218.682,191.931 218.896,191.798 219.59,192.226 C220.954,193.069 333.449,193.098 334.812,192.256 C335.314,191.945 335.725,192.098 335.725,192.594 C335.725,193.402 353.758,194.043 383.725,194.301 C389.5,194.35 396.25,193.975 398.725,193.468 C405.757,192.025 409.86,191.783 409.201,192.849 C408.437,194.085 409.369,194.071 411.722,192.811 C413.07,192.09 413.558,190.772 413.481,188.061 C413.423,185.998 413.728,177.179 414.16,168.463 L414.945,152.617 L393.085,153.463 C368.379,154.42 162.198,154.433 142.225,153.48 C129.362,152.866 112.745,152.346 72.475,151.3 C52.13,150.771 51.725,150.8 51.725,152.785 C51.725,153.899 51.387,154.813 50.975,154.817 C50.319,154.823 49.973,183.718 50.523,192.56 L50.725,195.81 L56.475,195.918 C59.637,195.978 64.925,196.362 68.225,196.771 C77.263,197.893 81.839,197.902 96.668,196.828 z" fill="#FD9800" id="path89667"/>
    <path d="M1123.225,787.179 C1118.222,786.627 1101.545,784.841 1096.225,784.288 C1093.475,784.002 1088.525,783.53 1085.225,783.239 C1060.164,781.031 1060.838,778.984 1087.725,775.647 C1092.95,774.999 1114.325,774.208 1135.225,773.889 L1173.225,773.31 L1173.858,767.81 C1174.205,764.785 1175.206,755.198 1176.081,746.507 C1176.956,737.815 1177.875,730.375 1178.124,729.973 C1178.372,729.571 1178.837,718.043 1179.156,704.354 C1179.475,690.665 1179.922,679.28 1180.148,679.053 C1180.601,678.6 1181.347,685.027 1182.266,697.31 C1182.595,701.71 1183.282,708.235 1183.792,711.81 C1186.775,732.691 1186.573,763.507 1183.379,774.81 C1182.525,777.835 1181.435,781.66 1180.957,783.31 L1180.089,786.31 L1170.157,786.942 C1159.843,787.599 1128.468,787.757 1123.225,787.179 z" fill="#000000" id="path89665"/>
    <path d="M7.015,783.51 C0.911,776.679 -1.25,755.938 0.69,722.81 C1.318,712.085 1.813,702.297 1.79,701.06 C1.766,699.806 2.351,698.81 3.111,698.81 C4.107,698.81 4.622,701.028 5.022,707.06 C5.324,711.597 6.035,718.235 6.603,721.81 C7.17,725.385 7.878,731.91 8.174,736.31 C8.471,740.71 9.183,747.91 9.756,752.31 C10.329,756.71 11.06,763.738 11.382,767.929 L11.967,775.548 L15.596,776.82 C18.045,777.679 28.001,778.236 46.225,778.534 C61.075,778.776 73.586,779.321 74.028,779.745 C74.469,780.169 70.194,781.074 64.528,781.757 C58.861,782.44 53.1,783.175 51.725,783.389 C50.35,783.604 42.925,784.022 35.225,784.318 C27.525,784.614 18.47,785.048 15.103,785.283 C9.752,785.657 8.733,785.433 7.015,783.51 z" fill="#000000" id="path89663"/>
    <path d="M258.725,126.642 C210.234,125.455 124.226,122.707 111.804,121.947 C105.341,121.552 101.239,120.872 101.003,120.157 C100.463,118.519 111.982,117.973 161.225,117.304 C184.325,116.989 214.475,116.412 228.225,116.021 C241.975,115.63 278.388,115.31 309.142,115.31 C352.987,115.31 365.149,115.58 365.475,116.56 C365.704,117.247 366.74,117.81 367.777,117.81 C368.99,117.81 369.469,118.313 369.12,119.222 C368.797,120.063 369.316,120.794 370.401,121.028 C371.783,121.327 371.026,122.196 367.279,124.616 L362.333,127.81 L327.779,127.648 C308.774,127.559 277.7,127.106 258.725,126.642 z" fill="#000000" id="path89661"/>
    <path d="M396.675,121.178 C396.124,119.73 395.959,117.649 396.306,116.553 C396.662,115.432 396.416,114.237 395.743,113.821 C394.837,113.261 395.073,110.569 396.717,102.696 C397.909,96.983 399.139,89.044 399.45,85.053 L400.015,77.797 L410.534,67.303 C416.319,61.532 421.378,56.81 421.774,56.81 C422.171,56.81 427.16,53.997 432.86,50.56 C438.561,47.122 445.475,43.502 448.225,42.514 C455.129,40.034 463.138,37.89 463.636,38.388 C465.382,40.133 446.533,57.077 431.225,67.525 C417.028,77.214 408.738,86.393 408.729,92.434 C408.727,94.152 408.011,97.527 407.138,99.934 C406.266,102.341 405.463,104.76 405.354,105.31 C404.598,109.132 399.156,123.81 398.494,123.81 C398.044,123.81 397.225,122.625 396.675,121.178 z" fill="#000000" id="path89659"/>
    <path d="M778.374,112.81 C777.942,111.473 777.301,105.646 776.232,93.31 C776.041,91.11 775.588,84.36 775.225,78.31 C774.549,67.049 772.003,56.491 768.917,52.154 C767.986,50.846 764.397,47.725 760.94,45.217 C757.483,42.71 753.54,38.892 752.177,36.734 C750.815,34.576 749.255,32.81 748.712,32.81 C748.169,32.81 747.725,31.91 747.725,30.81 C747.725,28.341 747.885,28.341 752.725,30.81 C754.881,31.91 757.183,32.81 757.841,32.81 C758.498,32.81 760.429,33.851 762.131,35.125 C763.832,36.398 768.053,39.14 771.508,41.217 C774.964,43.295 779.127,46.118 780.758,47.491 L783.725,49.987 L783.725,72.792 C783.725,89.831 783.318,97.582 782.115,103.453 C780.281,112.408 779.155,115.224 778.374,112.81 z" fill="#000000" id="path89646"/>
  </g>
</svg>
